<?xml version="1.0" encoding="utf-8"?>
<!-- Generator: Adobe Illustrator 25.1.0, SVG Export Plug-In . SVG Version: 6.00 Build 0)  -->
<svg version="1.1" id="Layer_1" xmlns="http://www.w3.org/2000/svg" xmlns:xlink="http://www.w3.org/1999/xlink" x="0px" y="0px"
	 viewBox="0 0 40.8 40" style="enable-background:new 0 0 40.8 40;" xml:space="preserve">
<style type="text/css">
	.st0{fill:#54E6AF;}
</style>
<g id="Group_10" transform="translate(0 0)">
	<path id="Combined_Shape" class="st0" d="M20,40c-11,0-20-9-20-20c0-8,4.8-15.3,12.2-18.4c10.2-4.3,21.9,0.5,26.2,10.7
		c4.3,10.2-0.5,21.8-10.6,26.1C25.3,39.5,22.7,40,20,40z M16.6,11.8c0.1,0,0.2,0.1,0.2,0.2c0,0,0,0,0,0l2.4,16.3
		c0.1,1.1,1.1,1.9,2.2,1.9h0c1.1,0,2-0.8,2.1-1.9l0.3-2.9c0-0.3,0-0.5-0.2-0.7c-0.2-0.2-0.4-0.3-0.6-0.4c0,0-0.1,0-0.1,0
		c-0.5,0-0.9,0.4-1,0.8L21.6,28c0,0.1-0.1,0.2-0.2,0.2c0,0,0,0,0,0h0c-0.1,0-0.2-0.1-0.2-0.2c0,0,0,0,0,0l-2.3-16.3
		c-0.2-1.2-1.3-2-2.5-1.8c-0.9,0.1-1.7,0.9-1.8,1.8l-1.7,11.6c0,0.1-0.1,0.2-0.2,0.2c0,0,0,0,0,0h0c-0.1,0-0.2-0.1-0.2-0.2L11.8,21
		v0c-0.3-1.5-1.6-2.5-3.1-2.5c-0.5,0-1,0.4-1,1s0.4,1,1,1c0.6,0,1.1,0.5,1.3,1.1l0.5,2.4v0c0.2,1,1.1,1.7,2.1,1.7c0,0,0.1,0,0.1,0
		c1,0,1.9-0.8,2.1-1.8L16.3,12C16.3,11.9,16.4,11.8,16.6,11.8C16.5,11.8,16.6,11.8,16.6,11.8z M24.6,18.3L24.6,18.3
		C24.6,18.3,24.6,18.3,24.6,18.3L24.6,18.3l0.8,4.6c0.2,1,1,1.7,2,1.7h0.1c1,0,1.8-0.6,2-1.6v0l0.3-1.4c0.2-0.7,0.8-1.3,1.6-1.3
		c0.5,0,1-0.4,1-1s-0.4-1-1-1c-1.6,0-3.1,1.2-3.5,2.8v0l-0.3,1.4c0,0.1-0.1,0.1-0.1,0.1h0c-0.1,0-0.1-0.1-0.1-0.1L26.5,18
		c-0.1-0.9-1-1.6-1.9-1.6h-0.1c-1,0-1.8,0.7-1.9,1.7l-0.4,3.6c0,0.3,0,0.5,0.2,0.7c0.2,0.2,0.4,0.3,0.6,0.4c0,0,0.1,0,0.1,0
		c0.5,0,0.9-0.4,1-0.8L24.6,18.3C24.6,18.3,24.6,18.3,24.6,18.3L24.6,18.3L24.6,18.3L24.6,18.3z"/>
</g>
</svg>
